<?xml version="1.0" encoding="utf-8"?>
<svg viewBox="0 0 800.12205 541.4453" xmlns="http://www.w3.org/2000/svg">
  <path d="M397.61864,376.66758c5.33472-10.07067,6.21531-23.18724-.41809-32.45416-3.94861-5.51625-10.114-9.13731-16.5831-11.17974s-13.29352-2.64274-20.05919-3.13909c-6.69738-.49134-13.51391-.88463-20.05622.63013s-12.87936,5.21528-16.06641,11.12621c-5.384,9.98545-.47945,22.78941-4.43391,33.42231-3.629,9.75779-13.95725,15.46248-24.11029,17.76466s-20.7502,2.05718-30.90827,4.337-20.50358,7.93161-24.19689,17.66525c-2.67075,7.03869-1.3438,15.14634,2.17543,21.8015s9.03083,12.04315,14.88123,16.78118c8.72778,7.06833,18.9387,13.122,30.153,13.73469,11.81633.64564,23.37009-4.97924,31.87484-13.20795s14.29474-18.86236,18.92069-29.75469c2.93464-6.91,5.70733-14.34655,11.58833-19.01277,4.32141-3.42878,9.81777-4.93092,15.14811-6.35168l6.03579-1.60878a41.44067,41.44067,0,0,0,25.89412-20.25286Q397.53861,376.81864,397.61864,376.66758Z" transform="matrix(1, 0, 0, 1, -199.93898010253906, -179.27734375)" fill="#2f2e41"/>
  <polygon points="150.079 528.665 137.82 528.665 131.987 481.377 150.082 481.377 150.079 528.665" fill="#ffb8b8" transform="matrix(1, 0, 0, 1, -1.4210854715202004e-14, -1.4210854715202004e-14)"/>
  <path d="M129.06244,525.16164h23.64387a0,0,0,0,1,0,0v14.88687a0,0,0,0,1,0,0H114.17558a0,0,0,0,1,0,0v0A14.88686,14.88686,0,0,1,129.06244,525.16164Z" style="fill: rgb(249, 104, 38);" transform="matrix(1, 0, 0, 1, -1.4210854715202004e-14, -1.4210854715202004e-14)"/>
  <polygon points="252.079 528.665 239.82 528.665 233.987 481.377 252.082 481.377 252.079 528.665" fill="#ffb8b8" transform="matrix(1, 0, 0, 1, -1.4210854715202004e-14, -1.4210854715202004e-14)"/>
  <path d="M231.06244,525.16164h23.64387a0,0,0,0,1,0,0v14.88687a0,0,0,0,1,0,0H216.17558a0,0,0,0,1,0,0v0A14.88686,14.88686,0,0,1,231.06244,525.16164Z" style="fill: rgb(249, 104, 38);" transform="matrix(1, 0, 0, 1, -1.4210854715202004e-14, -1.4210854715202004e-14)"/>
  <path d="M373.58482,670.35742a4.83433,4.83433,0,0,1-.512-.02749l-49.87738-5.34411a4.69083,4.69083,0,0,1-4.06331-5.75129l44.16249-167.97008A4.71833,4.71833,0,0,1,366.84,487.772l40.968-11.42012a4.722,4.722,0,0,1,4.54861,1.4821c26.34037,29.71022,46.19019,95.57108,61.227,178.585a4.69166,4.69166,0,0,1-4.02183,5.48968l-40.86771,5.21789a4.67848,4.67848,0,0,1-5.17081-3.62687l-19.88367-88.64816a3.64829,3.64829,0,0,0-7.13744.08245l-18.33031,91.651A4.66624,4.66624,0,0,1,373.58482,670.35742Z" transform="matrix(1, 0, 0, 1, -199.93898010253906, -179.27734375)" style="fill: rgb(41, 39, 84);"/>
  <circle cx="166.05906" cy="195.89412" r="24.56103" fill="#ffb8b8" transform="matrix(1, 0, 0, 1, -1.4210854715202004e-14, -1.4210854715202004e-14)"/>
  <path d="M365.31214,491.73677a4.68072,4.68072,0,0,1-4.52138-3.48538L346.015,432.74183a16.77836,16.77836,0,0,1,10.11005-19.96459c11.894-4.64277,23.22577-6.3651,33.68038-5.12119h0c9.29189,1.1075,20.75451,56.11828,19.99615,57.29195l3.66683,10.99972a4.69093,4.69093,0,0,1-3.44212,6.0648l-43.695,9.61228A4.732,4.732,0,0,1,365.31214,491.73677Z" transform="matrix(1, 0, 0, 1, -199.93898010253906, -179.27734375)" style="fill: rgb(249, 104, 38);"/>
  <path d="M378.55437,548.5036a7.61039,7.61039,0,0,0-7.36811-9.04937l-8.51288-25.67-8.70071,11.03671,9.41789,22.68464a7.65163,7.65163,0,0,0,15.16381.998Z" transform="matrix(1, 0, 0, 1, -199.93898010253906, -179.27734375)" fill="#ffb8b8"/>
  <path d="M488.00168,486.81137a7.61039,7.61039,0,0,0-11.385-2.56171L454.061,469.32786l-.02058,14.05386,21.42241,12.01539a7.65163,7.65163,0,0,0,12.53883-8.58574Z" transform="matrix(1, 0, 0, 1, -199.93898010253906, -179.27734375)" fill="#ffb8b8"/>
  <path d="M360.7065,536.64362a4.6899,4.6899,0,0,1-4.45394-3.21767l-19.95679-42.21646a24.39872,24.39872,0,0,1-1.23475-7.66906l6-54.87133a12.059,12.059,0,0,1,24.02994-1.45563l-9.17975,62.631,14.64881,38.44a4.68142,4.68142,0,0,1-2.47839,5.225l-5.278,2.63948A4.68456,4.68456,0,0,1,360.7065,536.64362Z" transform="matrix(1, 0, 0, 1, -199.93898010253906, -179.27734375)" style="fill: rgb(249, 104, 38);"/>
  <path d="M467.29051,492.35386a4.681,4.681,0,0,1-2.115-.50387l-39.68768-20.04705a24.36835,24.36835,0,0,1-6.289-4.56031l-38.73694-38.86239a12.05881,12.05881,0,0,1,15.99239-17.99389l41.96249,46.60271,33.263,21.11994a4.67994,4.67994,0,0,1,1.933,5.45l-1.875,5.59554a4.692,4.692,0,0,1-4.44732,3.19934Z" transform="matrix(1, 0, 0, 1, -199.93898010253906, -179.27734375)" style="fill: rgb(249, 104, 38);"/>
  <path d="M338.061,362.473a28.60013,28.60013,0,0,0,16.89515,10.63127,29.8702,29.8702,0,0,0,20.06006-2.87413c4.94657-2.67271,8.905-6.68407,12.782-10.63335,1.618-1.64821,3.3414-3.549,3.26-5.79747-.12611-3.48365-4.31416-5.38825-7.90863-6.148a56.43491,56.43491,0,0,0-35.03266,3.93979c-4.88,2.26681-9.96448,6.3679-9.23175,11.46579" transform="matrix(1, 0, 0, 1, -199.93898010253906, -179.27734375)" fill="#2f2e41"/>
  <path d="M 744.809 189.445 L 299.817 189.445 C 291.154 189.459 284.135 197.062 284.122 206.445 L 284.122 392.445 C 284.135 401.829 291.154 409.432 299.817 409.445 L 744.809 409.445 C 753.472 409.432 760.492 401.829 760.504 392.445 L 760.504 206.445 C 760.492 197.062 753.472 189.459 744.809 189.445 Z M 758.657 392.445 C 758.649 400.725 752.454 407.435 744.809 407.445 L 299.817 407.445 C 292.172 407.435 285.978 400.725 285.969 392.445 L 285.969 206.445 C 285.978 198.165 292.172 191.455 299.817 191.445 L 744.809 191.445 C 752.454 191.455 758.649 198.165 758.657 206.445 L 758.657 392.445 Z" style="stroke: rgb(229, 229, 229); fill: rgb(229, 229, 229); stroke-width: 0px;" transform="matrix(1, 0, 0, 1, -7.105427357601002e-15, 0)"/>
  <path d="M 367.636 357.445 C 322.987 357.445 295.082 309.112 317.406 270.445 C 339.73 231.779 395.541 231.779 417.865 270.445 C 422.956 279.262 425.636 289.264 425.636 299.445 C 425.6 331.463 399.653 357.409 367.636 357.445 Z M 367.636 243.445 C 324.527 243.445 297.584 290.112 319.138 327.445 C 340.693 364.779 394.579 364.779 416.133 327.445 C 421.048 318.932 423.636 309.275 423.636 299.445 C 423.601 268.532 398.549 243.48 367.636 243.445 Z" style="stroke: rgb(0, 222, 52); fill: rgb(0, 207, 0);" transform="matrix(1, 0, 0, 1, -7.105427357601002e-15, 0)"/>
  <path d="M 719.108 262.445 L 488.108 262.445 C 481.399 262.449 475.89 267.751 475.628 274.455 C 475.612 274.618 475.605 274.782 475.608 274.945 C 475.618 281.845 481.209 287.436 488.108 287.445 L 719.108 287.445 C 728.731 287.445 734.745 277.029 729.934 268.695 C 727.701 264.828 723.574 262.445 719.108 262.445 Z" fill="#f96826" transform="matrix(1, 0, 0, 1, -7.105427357601002e-15, 0)"/>
  <path d="M 719.108 311.445 L 488.108 311.445 C 481.399 311.449 475.89 316.751 475.628 323.455 C 475.612 323.618 475.605 323.782 475.608 323.945 C 475.618 330.845 481.209 336.436 488.108 336.445 L 719.108 336.445 C 728.731 336.445 734.745 326.029 729.934 317.695 C 727.701 313.828 723.574 311.445 719.108 311.445 Z" fill="#f96826" transform="matrix(1, 0, 0, 1, -7.105427357601002e-15, 0)"/>
  <path d="M 361.165 324.787 C 359.547 324.79 357.971 324.267 356.676 323.296 L 356.596 323.236 L 339.692 310.293 C 335.103 306.777 336.041 299.612 341.381 297.396 C 343.859 296.367 346.698 296.739 348.827 298.371 L 359.777 306.766 L 385.651 273.022 C 388.175 269.731 392.889 269.108 396.18 271.632 L 396.02 271.851 L 396.185 271.635 C 399.472 274.162 400.094 278.872 397.575 282.165 L 367.14 321.856 C 365.713 323.71 363.504 324.794 361.165 324.787 Z" style="fill: rgb(0, 207, 0);" transform="matrix(1, 0, 0, 1, -7.105427357601002e-15, 0)"/>
  <circle class="cls-18" cx="98.456" cy="94.45" r="49.999" style="fill: none; stroke: rgb(246, 160, 25); stroke-miterlimit: 10; stroke-width: 5.99992px;" transform="matrix(1, 0, 0, 1.000025987625122, 1.5426959991455007, -8.452476501464844)"/>
  <path style="fill: none; stroke: rgb(216, 216, 216); stroke-width: 6.4px; transform-origin: 87.968px 60.778px;" d="M 62.381 108.544 C 42.817 74.571 65.915 33.255 105.219 32.729 C 106.633 32.71 108.175 32.754 109.599 32.933" transform="matrix(0.975560367107, 0.219733998179, -0.219733998179, 0.975560367107, 0.000016826379, 0.00000519278)"/>
  <text style="white-space: pre; fill: rgb(51, 51, 51); font-family: Arial, sans-serif; font-size: 5.5px;" x="81.276" y="79.02" transform="matrix(1, 0, 0, 1, -1.4210854715202004e-14, -1.4210854715202004e-14)"> </text>
  <text style="fill: rgb(246, 160, 25); font-family: Arial, sans-serif; font-size: 21px; white-space: pre;" x="79.701" y="91.226" transform="matrix(1, 0, 0, 1, -1.4210854715202004e-14, -1.4210854715202004e-14)">70%</text>
  <g transform="matrix(0.10589200258255005, 0, 0, 0.11686098575592041, 34.59981155395507, 370.9322509765625)" style="">
    <g id="g202">
      <g id="g193">
        <g id="g12">
          <defs id="defs5">
            <path id="path-1" d="M696.53,160.738c0-23.307-14.913-43.087-35.719-50.454V53.579C660.811,23.977,636.834,0,607.231,0H89.299      C59.696,0,35.719,23.977,35.719,53.579l0.134,56.615C15.002,117.517,0,137.341,0,160.738c0,2.5,0.179,4.956,0.491,7.322      l35.228,224.854l0,0L17.994,621.385c-0.089,1.25-0.134,2.456-0.134,3.706c0,29.603,23.977,53.579,53.579,53.579h553.652      c29.603,0,53.579-23.977,53.579-53.579c0-1.25-0.045-2.456-0.134-3.706l-17.726-228.471l35.228-224.854      C696.352,165.694,696.53,163.238,696.53,160.738z"/>
          </defs>
          <clipPath id="SVGID_2_">
            <path id="use7" d="M696.53,160.738c0-23.307-14.913-43.087-35.719-50.454V53.579C660.811,23.977,636.834,0,607.231,0H89.299      C59.696,0,35.719,23.977,35.719,53.579l0.134,56.615C15.002,117.517,0,137.341,0,160.738c0,2.5,0.179,4.956,0.491,7.322      l35.228,224.854l0,0L17.994,621.385c-0.089,1.25-0.134,2.456-0.134,3.706c0,29.603,23.977,53.579,53.579,53.579h553.652      c29.603,0,53.579-23.977,53.579-53.579c0-1.25-0.045-2.456-0.134-3.706l-17.726-228.471l35.228-224.854      C696.352,165.694,696.53,163.238,696.53,160.738z" overflow="visible"/>
          </clipPath>
          <path clip-path="url(#SVGID_2_)" fill="#C2C2C2" d="M607.231,0H89.299C59.696,0,35.719,23.977,35.719,53.579l1.027,339.335     h624.064V53.579C660.811,23.977,636.834,0,607.231,0z" id="path10"/>
        </g>
        <g id="g30">
          <defs id="defs15">
            <path id="SVGID_3_" d="M696.53,160.738c0-23.307-14.913-43.087-35.719-50.454V53.579C660.811,23.977,636.834,0,607.231,0H89.299      C59.696,0,35.719,23.977,35.719,53.579l0.134,56.615C15.002,117.517,0,137.341,0,160.738c0,2.5,0.179,4.956,0.491,7.322      l35.228,224.854l0,0L17.994,621.385c-0.089,1.25-0.134,2.456-0.134,3.706c0,29.603,23.977,53.579,53.579,53.579h553.652      c29.603,0,53.579-23.977,53.579-53.579c0-1.25-0.045-2.456-0.134-3.706l-17.726-228.471l35.228-224.854      C696.352,165.694,696.53,163.238,696.53,160.738z"/>
          </defs>
          <clipPath id="SVGID_4_">
            <path id="use17" d="M696.53,160.738c0-23.307-14.913-43.087-35.719-50.454V53.579C660.811,23.977,636.834,0,607.231,0H89.299      C59.696,0,35.719,23.977,35.719,53.579l0.134,56.615C15.002,117.517,0,137.341,0,160.738c0,2.5,0.179,4.956,0.491,7.322      l35.228,224.854l0,0L17.994,621.385c-0.089,1.25-0.134,2.456-0.134,3.706c0,29.603,23.977,53.579,53.579,53.579h553.652      c29.603,0,53.579-23.977,53.579-53.579c0-1.25-0.045-2.456-0.134-3.706l-17.726-228.471l35.228-224.854      C696.352,165.694,696.53,163.238,696.53,160.738z" overflow="visible"/>
          </clipPath>
          <g clip-path="url(#SVGID_4_)" id="g28">
            <g id="g24">
              <path fill="#3367D6" d="M642.951,107.158H53.579C23.977,107.158,0,131.135,0,160.738c0,2.5,0.179,4.956,0.491,7.322       l35.228,224.854h625.091l35.228-224.854c0.313-2.411,0.491-4.867,0.491-7.322C696.53,131.135,672.553,107.158,642.951,107.158z       " id="path22"/>
            </g>
            <path opacity="0.5" fill="#2A56C6" d="M642.951,107.158H53.579C23.977,107.158,0,131.135,0,160.738      c0,2.5,0.179,4.956,0.491,7.322l35.228,224.854h625.091l35.228-224.854c0.313-2.411,0.491-4.867,0.491-7.322      C696.53,131.135,672.553,107.158,642.951,107.158z" id="path26"/>
          </g>
        </g>
        <g id="g40">
          <defs id="defs33">
            <path id="SVGID_5_" d="M696.53,160.738c0-23.307-14.913-43.087-35.719-50.454V53.579C660.811,23.977,636.834,0,607.231,0H89.299      C59.696,0,35.719,23.977,35.719,53.579l0.134,56.615C15.002,117.517,0,137.341,0,160.738c0,2.5,0.179,4.956,0.491,7.322      l35.228,224.854l0,0L17.994,621.385c-0.089,1.25-0.134,2.456-0.134,3.706c0,29.603,23.977,53.579,53.579,53.579h553.652      c29.603,0,53.579-23.977,53.579-53.579c0-1.25-0.045-2.456-0.134-3.706l-17.726-228.471l35.228-224.854      C696.352,165.694,696.53,163.238,696.53,160.738z"/>
          </defs>
          <clipPath id="SVGID_6_">
            <path id="use35" d="M696.53,160.738c0-23.307-14.913-43.087-35.719-50.454V53.579C660.811,23.977,636.834,0,607.231,0H89.299      C59.696,0,35.719,23.977,35.719,53.579l0.134,56.615C15.002,117.517,0,137.341,0,160.738c0,2.5,0.179,4.956,0.491,7.322      l35.228,224.854l0,0L17.994,621.385c-0.089,1.25-0.134,2.456-0.134,3.706c0,29.603,23.977,53.579,53.579,53.579h553.652      c29.603,0,53.579-23.977,53.579-53.579c0-1.25-0.045-2.456-0.134-3.706l-17.726-228.471l35.228-224.854      C696.352,165.694,696.53,163.238,696.53,160.738z" overflow="visible"/>
          </clipPath>
          <path clip-path="url(#SVGID_6_)" fill="#4285F4" d="M678.536,621.385l-17.726-228.471H35.719L17.994,621.385     c-0.089,1.25-0.134,2.456-0.134,3.706c0,29.603,23.977,53.579,53.579,53.579h553.652c29.603,0,53.579-23.977,53.579-53.579     C678.67,623.841,678.626,622.635,678.536,621.385z" id="path38"/>
        </g>
        <g id="g55">
          <defs id="defs43">
            <path id="SVGID_7_" d="M696.53,160.738c0-23.307-14.913-43.087-35.719-50.454V53.579C660.811,23.977,636.834,0,607.231,0H89.299      C59.696,0,35.719,23.977,35.719,53.579l0.134,56.615C15.002,117.517,0,137.341,0,160.738c0,2.5,0.179,4.956,0.491,7.322      l35.228,224.854l0,0L17.994,621.385c-0.089,1.25-0.134,2.456-0.134,3.706c0,29.603,23.977,53.579,53.579,53.579h553.652      c29.603,0,53.579-23.977,53.579-53.579c0-1.25-0.045-2.456-0.134-3.706l-17.726-228.471l35.228-224.854      C696.352,165.694,696.53,163.238,696.53,160.738z"/>
          </defs>
          <clipPath id="SVGID_8_">
            <path id="use45" d="M696.53,160.738c0-23.307-14.913-43.087-35.719-50.454V53.579C660.811,23.977,636.834,0,607.231,0H89.299      C59.696,0,35.719,23.977,35.719,53.579l0.134,56.615C15.002,117.517,0,137.341,0,160.738c0,2.5,0.179,4.956,0.491,7.322      l35.228,224.854l0,0L17.994,621.385c-0.089,1.25-0.134,2.456-0.134,3.706c0,29.603,23.977,53.579,53.579,53.579h553.652      c29.603,0,53.579-23.977,53.579-53.579c0-1.25-0.045-2.456-0.134-3.706l-17.726-228.471l35.228-224.854      C696.352,165.694,696.53,163.238,696.53,160.738z" overflow="visible"/>
          </clipPath>
          <linearGradient id="SVGID_9_" gradientUnits="userSpaceOnUse" x1="3735.4238" y1="-1499.7716" x2="4613.7563" y2="-2378.1042" gradientTransform="matrix(0.3333 0 0 -0.3333 -1047.1566 -266.2198)">
            <stop offset="0" style="stop-color:#1A237E;stop-opacity:0.2" id="stop48"/>
            <stop offset="1" style="stop-color:#1A237E;stop-opacity:0.02" id="stop50"/>
          </linearGradient>
          <polygon clip-path="url(#SVGID_8_)" fill="url(#SVGID_9_)" points="35.719,392.914 321.475,678.67 678.67,678.67 678.67,392.914         " id="polygon53"/>
        </g>
        <g id="g65">
          <defs id="defs58">
            <path id="SVGID_10_" d="M696.53,160.738c0-23.307-14.913-43.087-35.719-50.454V53.579C660.811,23.977,636.834,0,607.231,0      H89.299C59.696,0,35.719,23.977,35.719,53.579l0.134,56.615C15.002,117.517,0,137.341,0,160.738c0,2.5,0.179,4.956,0.491,7.322      l35.228,224.854l0,0L17.994,621.385c-0.089,1.25-0.134,2.456-0.134,3.706c0,29.603,23.977,53.579,53.579,53.579h553.652      c29.603,0,53.579-23.977,53.579-53.579c0-1.25-0.045-2.456-0.134-3.706l-17.726-228.471l35.228-224.854      C696.352,165.694,696.53,163.238,696.53,160.738z"/>
          </defs>
          <clipPath id="SVGID_11_">
            <path id="use60" d="M696.53,160.738c0-23.307-14.913-43.087-35.719-50.454V53.579C660.811,23.977,636.834,0,607.231,0      H89.299C59.696,0,35.719,23.977,35.719,53.579l0.134,56.615C15.002,117.517,0,137.341,0,160.738c0,2.5,0.179,4.956,0.491,7.322      l35.228,224.854l0,0L17.994,621.385c-0.089,1.25-0.134,2.456-0.134,3.706c0,29.603,23.977,53.579,53.579,53.579h553.652      c29.603,0,53.579-23.977,53.579-53.579c0-1.25-0.045-2.456-0.134-3.706l-17.726-228.471l35.228-224.854      C696.352,165.694,696.53,163.238,696.53,160.738z" overflow="visible"/>
          </clipPath>
          <path clip-path="url(#SVGID_11_)" fill="#FFFFFF" fill-opacity="0.2" d="M53.579,111.623h589.372     c28.977,0,52.552,23.039,53.49,51.793c0.045-0.893,0.089-1.786,0.089-2.679c0-29.603-23.977-53.579-53.579-53.579H53.579     C23.977,107.158,0,131.135,0,160.738c0,0.893,0.045,1.786,0.089,2.679C1.027,134.662,24.602,111.623,53.579,111.623z" id="path63"/>
        </g>
        <g id="g75">
          <defs id="defs68">
            <path id="SVGID_12_" d="M696.53,160.738c0-23.307-14.913-43.087-35.719-50.454V53.579C660.811,23.977,636.834,0,607.231,0      H89.299C59.696,0,35.719,23.977,35.719,53.579l0.134,56.615C15.002,117.517,0,137.341,0,160.738c0,2.5,0.179,4.956,0.491,7.322      l35.228,224.854l0,0L17.994,621.385c-0.089,1.25-0.134,2.456-0.134,3.706c0,29.603,23.977,53.579,53.579,53.579h553.652      c29.603,0,53.579-23.977,53.579-53.579c0-1.25-0.045-2.456-0.134-3.706l-17.726-228.471l35.228-224.854      C696.352,165.694,696.53,163.238,696.53,160.738z"/>
          </defs>
          <clipPath id="SVGID_13_">
            <path id="use70" d="M696.53,160.738c0-23.307-14.913-43.087-35.719-50.454V53.579C660.811,23.977,636.834,0,607.231,0      H89.299C59.696,0,35.719,23.977,35.719,53.579l0.134,56.615C15.002,117.517,0,137.341,0,160.738c0,2.5,0.179,4.956,0.491,7.322      l35.228,224.854l0,0L17.994,621.385c-0.089,1.25-0.134,2.456-0.134,3.706c0,29.603,23.977,53.579,53.579,53.579h553.652      c29.603,0,53.579-23.977,53.579-53.579c0-1.25-0.045-2.456-0.134-3.706l-17.726-228.471l35.228-224.854      C696.352,165.694,696.53,163.238,696.53,160.738z" overflow="visible"/>
          </clipPath>
          <path clip-path="url(#SVGID_13_)" fill="#1A237E" fill-opacity="0.2" d="M625.091,674.205H71.439     c-28.977,0-52.552-23.039-53.49-51.793c-0.045,0.893-0.089,1.786-0.089,2.679c0,29.603,23.977,53.579,53.579,53.579h553.652     c29.603,0,53.579-23.977,53.579-53.579c0-0.893-0.045-1.786-0.089-2.679C677.643,651.166,654.069,674.205,625.091,674.205z" id="path73"/>
        </g>
        <g id="g85">
          <defs id="defs78">
            <path id="SVGID_14_" d="M696.53,160.738c0-23.307-14.913-43.087-35.719-50.454V53.579C660.811,23.977,636.834,0,607.231,0      H89.299C59.696,0,35.719,23.977,35.719,53.579l0.134,56.615C15.002,117.517,0,137.341,0,160.738c0,2.5,0.179,4.956,0.491,7.322      l35.228,224.854l0,0L17.994,621.385c-0.089,1.25-0.134,2.456-0.134,3.706c0,29.603,23.977,53.579,53.579,53.579h553.652      c29.603,0,53.579-23.977,53.579-53.579c0-1.25-0.045-2.456-0.134-3.706l-17.726-228.471l35.228-224.854      C696.352,165.694,696.53,163.238,696.53,160.738z"/>
          </defs>
          <clipPath id="SVGID_15_">
            <path id="use80" d="M696.53,160.738c0-23.307-14.913-43.087-35.719-50.454V53.579C660.811,23.977,636.834,0,607.231,0      H89.299C59.696,0,35.719,23.977,35.719,53.579l0.134,56.615C15.002,117.517,0,137.341,0,160.738c0,2.5,0.179,4.956,0.491,7.322      l35.228,224.854l0,0L17.994,621.385c-0.089,1.25-0.134,2.456-0.134,3.706c0,29.603,23.977,53.579,53.579,53.579h553.652      c29.603,0,53.579-23.977,53.579-53.579c0-1.25-0.045-2.456-0.134-3.706l-17.726-228.471l35.228-224.854      C696.352,165.694,696.53,163.238,696.53,160.738z" overflow="visible"/>
          </clipPath>
          <path clip-path="url(#SVGID_15_)" fill="#FFFFFF" fill-opacity="0.2" d="M607.231,0H89.299C59.696,0,35.719,23.977,35.719,53.579     v4.242C35.853,28.352,59.785,4.465,89.299,4.465h517.933c29.603,0,53.579,23.977,53.579,53.579v-4.465     C660.811,23.977,636.834,0,607.231,0z" id="path83"/>
        </g>
        <g id="g111">
          <defs id="defs88">
            <path id="SVGID_16_" d="M696.53,160.738c0-23.307-14.913-43.087-35.719-50.454V53.579C660.811,23.977,636.834,0,607.231,0      H89.299C59.696,0,35.719,23.977,35.719,53.579l0.134,56.615C15.002,117.517,0,137.341,0,160.738c0,2.5,0.179,4.956,0.491,7.322      l35.228,224.854l0,0L17.994,621.385c-0.089,1.25-0.134,2.456-0.134,3.706c0,29.603,23.977,53.579,53.579,53.579h553.652      c29.603,0,53.579-23.977,53.579-53.579c0-1.25-0.045-2.456-0.134-3.706l-17.726-228.471l35.228-224.854      C696.352,165.694,696.53,163.238,696.53,160.738z"/>
          </defs>
          <clipPath id="SVGID_17_">
            <path id="use90" d="M696.53,160.738c0-23.307-14.913-43.087-35.719-50.454V53.579C660.811,23.977,636.834,0,607.231,0      H89.299C59.696,0,35.719,23.977,35.719,53.579l0.134,56.615C15.002,117.517,0,137.341,0,160.738c0,2.5,0.179,4.956,0.491,7.322      l35.228,224.854l0,0L17.994,621.385c-0.089,1.25-0.134,2.456-0.134,3.706c0,29.603,23.977,53.579,53.579,53.579h553.652      c29.603,0,53.579-23.977,53.579-53.579c0-1.25-0.045-2.456-0.134-3.706l-17.726-228.471l35.228-224.854      C696.352,165.694,696.53,163.238,696.53,160.738z" overflow="visible"/>
          </clipPath>
          <g clip-path="url(#SVGID_17_)" id="g109">
            <g id="g107">
              <defs id="defs94">
                <path id="SVGID_18_" d="M642.951,107.158H53.579C23.977,107.158,0,131.135,0,160.738c0,2.5,0.179,4.956,0.491,7.322        l35.228,224.854h625.091l35.228-224.854c0.313-2.411,0.491-4.867,0.491-7.322C696.53,131.135,672.553,107.158,642.951,107.158        z"/>
              </defs>
              <clipPath id="SVGID_19_">
                <path id="use96" d="M642.951,107.158H53.579C23.977,107.158,0,131.135,0,160.738c0,2.5,0.179,4.956,0.491,7.322        l35.228,224.854h625.091l35.228-224.854c0.313-2.411,0.491-4.867,0.491-7.322C696.53,131.135,672.553,107.158,642.951,107.158        z" overflow="visible"/>
              </clipPath>
              <g clip-path="url(#SVGID_19_)" id="g105">
                <path fill="#E1E1E1" d="M295.847,389.075c20.315-8.394,46.48-30.719,46.48-64.34c0-51.793-33.264-83.628-89.299-83.628        c-49.918,0-90.147,32.683-90.861,80.369h36.255c0.536-27.861,19.378-50.766,54.562-50.766        c33.889,0,52.999,17.636,52.999,53.222s-27.236,52.017-60.455,52.017c-13.038,0-25.316,0-25.316,0v28.397        c0,0,14.02,0,25.316,0c48.846,0,64.92,25.361,64.92,54.785c0,38.488-23.396,56.258-57.285,56.258        c-29.513,0-56.392-15.761-57.196-50.99h-36.523c1.563,56.749,49.338,80.369,93.719,80.369c51.257,0,93.54-29.87,93.54-86.441        C346.792,412.694,314.287,394.477,295.847,389.075z M503.109,241.107l-105.73,37.952v34.112l75.904-25.361v256.912h35.72        V241.107H503.109z" id="path99"/>
                <g opacity="0.5" id="g103">
                  <path fill="#C2C2C2" d="M295.847,389.075c20.315-8.394,46.48-30.719,46.48-64.34c0-51.793-33.264-83.628-89.299-83.628         c-49.918,0-90.147,32.683-90.861,80.369h36.255c0.536-27.861,19.378-50.766,54.562-50.766         c33.889,0,52.999,17.636,52.999,53.222s-27.236,52.017-60.455,52.017c-13.038,0-25.316,0-25.316,0v28.397         c0,0,14.02,0,25.316,0c48.846,0,64.92,25.361,64.92,54.785c0,38.488-23.396,56.258-57.285,56.258         c-29.513,0-56.392-15.761-57.196-50.99h-36.523c1.563,56.749,49.338,80.369,93.719,80.369c51.257,0,93.54-29.87,93.54-86.441         C346.792,412.694,314.287,394.477,295.847,389.075z M503.109,241.107l-105.73,37.952v34.112l75.904-25.361v256.912h35.72         V241.107H503.109z" id="path101"/>
                </g>
              </g>
            </g>
          </g>
        </g>
        <g id="g131">
          <defs id="defs114">
            <path id="SVGID_20_" d="M696.53,160.738c0-23.307-14.913-43.087-35.719-50.454V53.579C660.811,23.977,636.834,0,607.231,0      H89.299C59.696,0,35.719,23.977,35.719,53.579l0.134,56.615C15.002,117.517,0,137.341,0,160.738c0,2.5,0.179,4.956,0.491,7.322      l35.228,224.854l0,0L17.994,621.385c-0.089,1.25-0.134,2.456-0.134,3.706c0,29.603,23.977,53.579,53.579,53.579h553.652      c29.603,0,53.579-23.977,53.579-53.579c0-1.25-0.045-2.456-0.134-3.706l-17.726-228.471l35.228-224.854      C696.352,165.694,696.53,163.238,696.53,160.738z"/>
          </defs>
          <clipPath id="SVGID_21_">
            <path id="use116" d="M696.53,160.738c0-23.307-14.913-43.087-35.719-50.454V53.579C660.811,23.977,636.834,0,607.231,0      H89.299C59.696,0,35.719,23.977,35.719,53.579l0.134,56.615C15.002,117.517,0,137.341,0,160.738c0,2.5,0.179,4.956,0.491,7.322      l35.228,224.854l0,0L17.994,621.385c-0.089,1.25-0.134,2.456-0.134,3.706c0,29.603,23.977,53.579,53.579,53.579h553.652      c29.603,0,53.579-23.977,53.579-53.579c0-1.25-0.045-2.456-0.134-3.706l-17.726-228.471l35.228-224.854      C696.352,165.694,696.53,163.238,696.53,160.738z" overflow="visible"/>
          </clipPath>
          <g clip-path="url(#SVGID_21_)" id="g129">
            <g id="g127">
              <defs id="defs120">
                <path id="SVGID_22_" d="M678.536,621.385l-17.726-228.471H35.719L17.994,621.385c-0.089,1.25-0.134,2.456-0.134,3.706        c0,29.603,23.977,53.579,53.579,53.579h553.652c29.603,0,53.579-23.977,53.579-53.579        C678.67,623.841,678.626,622.635,678.536,621.385z"/>
              </defs>
              <clipPath id="SVGID_23_">
                <path id="use122" d="M678.536,621.385l-17.726-228.471H35.719L17.994,621.385c-0.089,1.25-0.134,2.456-0.134,3.706        c0,29.603,23.977,53.579,53.579,53.579h553.652c29.603,0,53.579-23.977,53.579-53.579        C678.67,623.841,678.626,622.635,678.536,621.385z" overflow="visible"/>
              </clipPath>
              <path clip-path="url(#SVGID_23_)" fill="#EEEEEE" d="M295.847,389.075c20.315-8.394,46.48-30.719,46.48-64.34       c0-51.793-33.264-83.628-89.299-83.628c-49.918,0-90.147,32.683-90.861,80.369h36.255       c0.536-27.861,19.378-50.766,54.562-50.766c33.889,0,52.999,17.636,52.999,53.222s-27.236,52.017-60.455,52.017       c-13.038,0-25.316,0-25.316,0v28.397c0,0,14.02,0,25.316,0c48.846,0,64.92,25.361,64.92,54.785       c0,38.488-23.396,56.258-57.285,56.258c-29.513,0-56.392-15.761-57.196-50.99h-36.523       c1.563,56.749,49.338,80.369,93.719,80.369c51.257,0,93.54-29.87,93.54-86.441       C346.792,412.694,314.287,394.477,295.847,389.075z M503.109,241.107l-105.73,37.952v34.112l75.904-25.361v256.912h35.72       V241.107H503.109z" id="path125"/>
            </g>
          </g>
        </g>
        <g id="g154">
          <defs id="defs134">
            <path id="SVGID_24_" d="M696.53,160.738c0-23.307-14.913-43.087-35.719-50.454V53.579C660.811,23.977,636.834,0,607.231,0      H89.299C59.696,0,35.719,23.977,35.719,53.579l0.134,56.615C15.002,117.517,0,137.341,0,160.738c0,2.5,0.179,4.956,0.491,7.322      l35.228,224.854l0,0L17.994,621.385c-0.089,1.25-0.134,2.456-0.134,3.706c0,29.603,23.977,53.579,53.579,53.579h553.652      c29.603,0,53.579-23.977,53.579-53.579c0-1.25-0.045-2.456-0.134-3.706l-17.726-228.471l35.228-224.854      C696.352,165.694,696.53,163.238,696.53,160.738z"/>
          </defs>
          <clipPath id="SVGID_25_">
            <path id="use136" d="M696.53,160.738c0-23.307-14.913-43.087-35.719-50.454V53.579C660.811,23.977,636.834,0,607.231,0      H89.299C59.696,0,35.719,23.977,35.719,53.579l0.134,56.615C15.002,117.517,0,137.341,0,160.738c0,2.5,0.179,4.956,0.491,7.322      l35.228,224.854l0,0L17.994,621.385c-0.089,1.25-0.134,2.456-0.134,3.706c0,29.603,23.977,53.579,53.579,53.579h553.652      c29.603,0,53.579-23.977,53.579-53.579c0-1.25-0.045-2.456-0.134-3.706l-17.726-228.471l35.228-224.854      C696.352,165.694,696.53,163.238,696.53,160.738z" overflow="visible"/>
          </clipPath>
          <g clip-path="url(#SVGID_25_)" id="g152">
            <linearGradient id="SVGID_26_" gradientUnits="userSpaceOnUse" x1="3676.2822" y1="-958.4171" x2="3780.4939" y2="-1062.6288" gradientTransform="matrix(0.3333 0 0 -0.3333 -1047.1566 -266.2198)">
              <stop offset="0" style="stop-color:#212121;stop-opacity:0.2" id="stop139"/>
              <stop offset="1" style="stop-color:#212121;stop-opacity:0.02" id="stop141"/>
            </linearGradient>
            <polygon fill="url(#SVGID_26_)" points="194.269,107.158 159.666,72.511 197.529,34.648 270.084,107.158     " id="polygon144"/>
            <circle fill="#EEEEEE" cx="178.597" cy="53.579" r="26.79" id="circle146"/>
            <path fill="#FFFFFF" fill-opacity="0.4" d="M178.597,31.255c14.065,0,25.539,10.805,26.656,24.557      c0.089-0.759,0.134-1.473,0.134-2.232c0-14.779-12.011-26.79-26.79-26.79s-26.79,12.011-26.79,26.79      c0,0.759,0.045,1.473,0.134,2.232C153.058,42.06,164.533,31.255,178.597,31.255z" id="path148"/>
            <path fill="#212121" fill-opacity="0.1" d="M205.253,55.812c-1.116,13.752-12.636,24.557-26.656,24.557      s-25.539-10.805-26.656-24.557c-0.089,0.759-0.134,1.473-0.134,2.232c0,14.779,12.011,26.79,26.79,26.79      s26.79-12.011,26.79-26.79C205.387,57.285,205.342,56.571,205.253,55.812z" id="path150"/>
          </g>
        </g>
        <g id="g168">
          <defs id="defs157">
            <path id="SVGID_27_" d="M696.53,160.738c0-23.307-14.913-43.087-35.719-50.454V53.579C660.811,23.977,636.834,0,607.231,0      H89.299C59.696,0,35.719,23.977,35.719,53.579l0.134,56.615C15.002,117.517,0,137.341,0,160.738c0,2.5,0.179,4.956,0.491,7.322      l35.228,224.854l0,0L17.994,621.385c-0.089,1.25-0.134,2.456-0.134,3.706c0,29.603,23.977,53.579,53.579,53.579h553.652      c29.603,0,53.579-23.977,53.579-53.579c0-1.25-0.045-2.456-0.134-3.706l-17.726-228.471l35.228-224.854      C696.352,165.694,696.53,163.238,696.53,160.738z"/>
          </defs>
          <clipPath id="SVGID_28_">
            <path id="use159" d="M696.53,160.738c0-23.307-14.913-43.087-35.719-50.454V53.579C660.811,23.977,636.834,0,607.231,0      H89.299C59.696,0,35.719,23.977,35.719,53.579l0.134,56.615C15.002,117.517,0,137.341,0,160.738c0,2.5,0.179,4.956,0.491,7.322      l35.228,224.854l0,0L17.994,621.385c-0.089,1.25-0.134,2.456-0.134,3.706c0,29.603,23.977,53.579,53.579,53.579h553.652      c29.603,0,53.579-23.977,53.579-53.579c0-1.25-0.045-2.456-0.134-3.706l-17.726-228.471l35.228-224.854      C696.352,165.694,696.53,163.238,696.53,160.738z" overflow="visible"/>
          </clipPath>
          <g clip-path="url(#SVGID_28_)" id="g166">
            <rect x="31.255" y="392.914" fill="#FFFFFF" fill-opacity="0.05" width="634.021" height="4.465" id="rect162"/>
            <rect x="31.255" y="388.449" fill="#1A237E" fill-opacity="0.05" width="634.021" height="4.465" id="rect164"/>
          </g>
        </g>
        <g id="g191">
          <defs id="defs171">
            <path id="SVGID_29_" d="M696.53,160.738c0-23.307-14.913-43.087-35.719-50.454V53.579C660.811,23.977,636.834,0,607.231,0      H89.299C59.696,0,35.719,23.977,35.719,53.579l0.134,56.615C15.002,117.517,0,137.341,0,160.738c0,2.5,0.179,4.956,0.491,7.322      l35.228,224.854l0,0L17.994,621.385c-0.089,1.25-0.134,2.456-0.134,3.706c0,29.603,23.977,53.579,53.579,53.579h553.652      c29.603,0,53.579-23.977,53.579-53.579c0-1.25-0.045-2.456-0.134-3.706l-17.726-228.471l35.228-224.854      C696.352,165.694,696.53,163.238,696.53,160.738z"/>
          </defs>
          <clipPath id="SVGID_30_">
            <path id="use173" d="M696.53,160.738c0-23.307-14.913-43.087-35.719-50.454V53.579C660.811,23.977,636.834,0,607.231,0      H89.299C59.696,0,35.719,23.977,35.719,53.579l0.134,56.615C15.002,117.517,0,137.341,0,160.738c0,2.5,0.179,4.956,0.491,7.322      l35.228,224.854l0,0L17.994,621.385c-0.089,1.25-0.134,2.456-0.134,3.706c0,29.603,23.977,53.579,53.579,53.579h553.652      c29.603,0,53.579-23.977,53.579-53.579c0-1.25-0.045-2.456-0.134-3.706l-17.726-228.471l35.228-224.854      C696.352,165.694,696.53,163.238,696.53,160.738z" overflow="visible"/>
          </clipPath>
          <g clip-path="url(#SVGID_30_)" id="g189">
            <linearGradient id="SVGID_31_" gradientUnits="userSpaceOnUse" x1="4694.375" y1="-958.5712" x2="4785.7544" y2="-1049.9506" gradientTransform="matrix(0.3333 0 0 -0.3333 -1047.1566 -266.2198)">
              <stop offset="0" style="stop-color:#212121;stop-opacity:0.2" id="stop176"/>
              <stop offset="1" style="stop-color:#212121;stop-opacity:0.02" id="stop178"/>
            </linearGradient>
            <polygon fill="url(#SVGID_31_)" points="533.605,107.158 499.001,72.511 536.864,34.648 591.559,107.158     " id="polygon181"/>
            <circle fill="#EEEEEE" cx="517.933" cy="53.579" r="26.79" id="circle183"/>
            <path fill="#FFFFFF" fill-opacity="0.4" d="M517.933,31.255c14.065,0,25.539,10.805,26.656,24.557      c0.045-0.759,0.134-1.473,0.134-2.232c0-14.779-12.011-26.79-26.79-26.79c-14.779,0-26.79,12.011-26.79,26.79      c0,0.759,0.045,1.473,0.134,2.232C492.393,42.06,503.868,31.255,517.933,31.255z" id="path185"/>
            <path fill="#212121" fill-opacity="0.1" d="M544.588,55.812c-1.116,13.752-12.636,24.557-26.656,24.557      c-14.02,0-25.539-10.805-26.656-24.557c-0.045,0.759-0.134,1.473-0.134,2.232c0,14.779,12.011,26.79,26.79,26.79      c14.779,0,26.79-12.011,26.79-26.79C544.722,57.285,544.678,56.571,544.588,55.812z" id="path187"/>
          </g>
        </g>
      </g>
      <radialGradient id="SVGID_32_" cx="3285.2671" cy="-843.7314" r="2682.4927" gradientTransform="matrix(0.3333 0 0 -0.3333 -1047.1566 -266.2198)" gradientUnits="userSpaceOnUse">
        <stop offset="0.33" style="stop-color:#FFFFFF" id="stop195"/>
        <stop offset="1" style="stop-color:#FFFFFF;stop-opacity:0" id="stop197"/>
      </radialGradient>
      <path fill="url(#SVGID_32_)" fill-opacity="0.05" d="M696.53,160.738c0-23.307-14.913-43.087-35.719-50.454V53.579   C660.811,23.977,636.834,0,607.231,0H89.299C59.696,0,35.719,23.977,35.719,53.579l0.134,56.615   C15.002,117.517,0,137.341,0,160.738c0,2.5,0.179,4.956,0.491,7.322l35.228,224.854l0,0L17.994,621.385   c-0.089,1.25-0.134,2.456-0.134,3.706c0,29.603,23.977,53.579,53.579,53.579h553.652c29.603,0,53.579-23.977,53.579-53.579   c0-1.25-0.045-2.456-0.134-3.706l-17.726-228.471l35.228-224.854C696.352,165.694,696.53,163.238,696.53,160.738z" id="path200"/>
    </g>
  </g>
</svg>